<?xml version="1.0" encoding="utf-8"?>
<!-- Generator: Adobe Illustrator 16.0.0, SVG Export Plug-In . SVG Version: 6.00 Build 0)  -->
<!DOCTYPE svg PUBLIC "-//W3C//DTD SVG 1.1//EN" "http://www.w3.org/Graphics/SVG/1.1/DTD/svg11.dtd">
<svg version="1.1" id="Layer_1" xmlns="http://www.w3.org/2000/svg" xmlns:xlink="http://www.w3.org/1999/xlink" x="0px" y="0px"
	 width="964.285px" height="209.334px" viewBox="0 0 964.285 209.334" enable-background="new 0 0 964.285 209.334"
	 xml:space="preserve">
<g>
	<defs>
		<rect id="SVGID_1_" x="6.396" y="7" width="196.74" height="196.742"/>
	</defs>
	<clipPath id="SVGID_2_">
		<use xlink:href="#SVGID_1_"  overflow="visible"/>
	</clipPath>
	<path clip-path="url(#SVGID_2_)" fill="#4B4B4B" d="M104.766,17.298c-48.641,0-88.072,39.432-88.072,88.073
		s39.432,88.075,88.072,88.075c48.642,0,88.074-39.434,88.074-88.075S153.407,17.298,104.766,17.298 M164.139,54.624
		c0,0-17.663,31.151-28.081,39.739c-8.021,6.668-11.313,4.71-15.743,6.351c-4.441,1.774-6.773,5.558-6.773,5.558
		s-2.404,3.357-6.046,8.438l38.596,51.981c0,0,1.478,2.027-0.592,3.57c-2.075,1.536-3.625-0.44-3.625-0.44l-37.591-50.628
		c-11.4,15.91-29.526,41.163-31.531,43.762c-5.131,6.377-8.556,5.24-9.881,4.419l-0.018,0.02c0,0-0.083-0.063-0.222-0.18
		c-0.149-0.106-0.228-0.176-0.228-0.176l0.017-0.023c-1.101-1.103-2.981-4.181,2.068-10.626c2.125-2.603,23.676-26.962,36.58-41.528
		L83.776,91.568c0,0-2.915,2.173-3.116,2.308c-1.951,1.447-3.963,2.436-6.342,2.081c-2.374-0.35-4.444-3.354-4.444-3.354
		L45.461,59.688c0,0-0.495-0.781,0.481-1.507c0.979-0.723,1.626-0.02,1.626-0.02l24.319,32.793c0,0,0.97,1.298,2.96,1.449
		c1.982,0.156,3.316-1.41,3.316-1.41s0.424-0.458,0.419-0.92c-0.005-0.459-0.27-0.799-0.27-0.799L52.503,54.468
		c0,0-0.485-0.772,0.462-1.474c0.947-0.703,1.635-0.048,1.635-0.048l24.821,33.472c0,0,0.154,0.25,0.688,0.483
		c0.535,0.241,1.057-0.125,1.057-0.125l2.999-2.221c0,0,0.501-0.397,0.428-0.978c-0.071-0.579-0.263-0.794-0.263-0.794
		L59.505,49.308c0,0-0.428-0.845,0.522-1.548c0.944-0.703,1.543-0.014,1.543-0.014l25.813,34.803c0,0,0.247,0.35,0.686,0.49
		c0.444,0.137,1-0.137,1-0.137s1.889-0.818,2.316-2.766c0.432-1.948-0.528-3.248-0.528-3.248L66.536,44.094
		c0,0-0.482-0.826,0.492-1.548c0.978-0.726,1.582-0.023,1.582-0.023L93.02,75.437c0,0,2.272,2.855,1.918,5.232
		c-0.352,2.376-1.881,4.015-3.832,5.465c-0.188,0.146-3.114,2.306-3.114,2.306l16.637,22.405c3.681-4.154,6.062-6.837,6.062-6.837
		s3.154-3.132,3.874-7.86c0.595-4.686-2.058-7.456,2.617-16.775c6.005-12.089,32.34-36.352,32.34-36.352s0.279-0.243,0.521-0.049
		c0.245,0.195-0.013,0.513-0.013,0.513l-20.021,26.281c0,0-1.125,1.351-0.062,2.194c1.065,0.849,2.269-0.384,2.269-0.384
		l21.717-25.223c0,0,0.244-0.332,0.563-0.076c0.325,0.257,0.039,0.554,0.039,0.554l-21.409,29.617c0,0-0.841,1.44,0.059,2.15
		c0.896,0.713,2.111-0.424,2.111-0.424l23.996-27.568c0,0,0.227-0.343,0.547-0.089c0.321,0.256,0.055,0.566,0.055,0.566
		L140.244,77.95c0,0-0.927,1.453,0.141,2.299c1.066,0.845,2.127-0.557,2.127-0.557l21.057-25.457c0,0,0.256-0.322,0.497-0.13
		C164.311,54.299,164.139,54.624,164.139,54.624"/>
	<path clip-path="url(#SVGID_2_)" fill="#4B4B4B" d="M104.766,7C50.438,7,6.396,51.043,6.396,105.371
		c0,54.327,44.041,98.371,98.369,98.371c54.33,0,98.371-44.044,98.371-98.371C203.137,51.043,159.096,7,104.766,7 M104.766,198.226
		c-51.281,0-92.853-41.573-92.853-92.854s41.571-92.854,92.853-92.854c51.282,0,92.855,41.573,92.855,92.854
		S156.048,198.226,104.766,198.226"/>
</g>
<g>
	<g>
		<path fill="#4B4B4B" d="M251.672,101.747V57.852h33.111v8.59h-23.517v8.906h20.695v8.591h-20.695v9.219h23.831v8.589H251.672z"/>
		<path fill="#4B4B4B" d="M318.068,102.062h-8.529l-17.746-44.209h10.66l11.477,30.915l11.475-30.915h10.41L318.068,102.062z"/>
		<path fill="#4B4B4B" d="M342.275,101.747V57.852h33.111v8.59H351.87v8.906h20.695v8.591H351.87v9.219h23.831v8.589H342.275z"/>
		<path fill="#4B4B4B" d="M410.193,101.747l-9.406-14.046h-7.589v14.046h-9.657V57.852h20.066c10.348,0,16.555,5.454,16.555,14.484
			v0.126c0,7.086-3.824,11.539-9.404,13.607l10.723,15.677H410.193z M410.382,72.839c0-4.139-2.886-6.271-7.589-6.271h-9.595v12.604
			h9.784c4.702,0,7.399-2.507,7.399-6.209V72.839z"/>
		<path fill="#4B4B4B" d="M450.041,84.251v17.496h-9.655V84.44l-16.871-26.588h11.289l10.472,17.622l10.662-17.622h10.974
			L450.041,84.251z"/>
		<path fill="#4B4B4B" d="M494.883,101.747V57.852h9.658v35.117h21.885v8.778H494.883z"/>
		<path fill="#4B4B4B" d="M568.131,101.747l-4.015-9.845h-18.562l-4.014,9.845h-9.846l18.813-44.209h8.905l18.813,44.209H568.131z
			 M554.836,69.139l-5.833,14.236h11.665L554.836,69.139z"/>
		<path fill="#4B4B4B" d="M600.428,102.376c-6.646,0-13.354-2.321-18.625-7.024l5.707-6.836c3.952,3.26,8.091,5.33,13.106,5.33
			c3.95,0,6.333-1.567,6.333-4.139v-0.126c0-2.445-1.505-3.7-8.84-5.58c-8.842-2.259-14.549-4.704-14.549-13.421v-0.125
			c0-7.965,6.396-13.233,15.362-13.233c6.397,0,11.851,2.006,16.304,5.583l-5.016,7.274c-3.889-2.697-7.713-4.327-11.412-4.327
			c-3.701,0-5.645,1.694-5.645,3.824v0.126c0,2.883,1.88,3.826,9.469,5.771c8.904,2.319,13.923,5.517,13.923,13.167v0.126
			C616.546,97.482,609.896,102.376,600.428,102.376z"/>
		<path fill="#4B4B4B" d="M644.954,66.756v34.991h-9.657V66.756H621.94v-8.904h36.37v8.904H644.954z"/>
		<path fill="#4B4B4B" d="M721.339,101.747V73.089L708.985,91.84h-0.251l-12.229-18.563v28.47h-9.469V57.852h10.409l11.539,18.561
			l11.537-18.561h10.409v43.895H721.339z"/>
		<path fill="#4B4B4B" d="M762.731,102.5c-13.546,0-23.265-10.095-23.265-22.575v-0.126c0-12.479,9.844-22.7,23.391-22.7
			c13.545,0,23.266,10.095,23.266,22.575v0.125C786.123,92.279,776.276,102.5,762.731,102.5z M776.026,79.799
			c0-7.525-5.519-13.796-13.295-13.796s-13.169,6.145-13.169,13.671v0.125c0,7.526,5.52,13.797,13.295,13.797
			c7.776,0,13.169-6.147,13.169-13.671V79.799z"/>
		<path fill="#4B4B4B" d="M821.179,101.747l-9.405-14.046h-7.588v14.046h-9.657V57.852h20.067c10.347,0,16.554,5.454,16.554,14.484
			v0.126c0,7.086-3.824,11.539-9.406,13.607l10.724,15.677H821.179z M821.369,72.839c0-4.139-2.886-6.271-7.589-6.271h-9.595v12.604
			h9.783c4.703,0,7.4-2.507,7.4-6.209V72.839z"/>
		<path fill="#4B4B4B" d="M855.736,102.376c-6.648,0-13.358-2.321-18.625-7.024l5.705-6.836c3.952,3.26,8.091,5.33,13.106,5.33
			c3.952,0,6.335-1.567,6.335-4.139v-0.126c0-2.445-1.506-3.7-8.842-5.58c-8.842-2.259-14.55-4.704-14.55-13.421v-0.125
			c0-7.965,6.397-13.233,15.365-13.233c6.396,0,11.851,2.006,16.304,5.583l-5.016,7.274c-3.889-2.697-7.715-4.327-11.414-4.327
			c-3.7,0-5.645,1.694-5.645,3.824v0.126c0,2.883,1.882,3.826,9.471,5.771c8.904,2.319,13.922,5.517,13.922,13.167v0.126
			C871.854,97.482,865.205,102.376,855.736,102.376z"/>
		<path fill="#4B4B4B" d="M879.631,101.747V57.852h33.111v8.59h-23.516v8.906h20.694v8.591h-20.694v9.219h23.83v8.589H879.631z"/>
		<path fill="#4B4B4B" d="M921.525,101.747V57.852h9.657v35.117h21.885v8.778H921.525z"/>
	</g>
	<g>
		<path fill="#4B4B4B" d="M254.552,128.566v10.839h14.957v1.813h-14.957v11.972h-1.964v-26.437h18.618v1.813H254.552z"/>
		<path fill="#4B4B4B" d="M297.013,153.19l-8.421-10.951h-8.648v10.951h-1.966v-26.437h11.104c5.702,0,9.441,3.096,9.441,7.516
			v0.073c0,4.421-3.284,6.951-7.741,7.557l8.726,11.292H297.013z M296.561,134.342c0-3.547-2.795-5.776-7.593-5.776h-9.024v11.896
			h8.913c4.419,0,7.704-2.228,7.704-6.042V134.342z"/>
		<path fill="#4B4B4B" d="M317.635,153.643c-8.009,0-13.259-6.383-13.259-13.595v-0.078c0-7.212,5.326-13.669,13.334-13.669
			c8.007,0,13.256,6.381,13.256,13.593c0.039,0.039,0.039,0.039,0,0.077C330.966,147.184,325.643,153.643,317.635,153.643z
			 M328.928,139.97c0-6.532-4.759-11.897-11.293-11.897c-6.535,0-11.217,5.289-11.217,11.821v0.077
			c0,6.534,4.758,11.897,11.292,11.897c6.533,0,11.218-5.288,11.218-11.819V139.97z"/>
		<path fill="#4B4B4B" d="M359.896,153.19v-22.962l-10.462,15.219h-0.15l-10.463-15.219v22.962h-1.889v-26.437h1.852l10.611,15.635
			l10.614-15.635h1.851v26.437H359.896z"/>
		<path fill="#4B4B4B" d="M393.921,143.333h-7.136v9.857h-1.966v-26.437h9.593c5.818,0,9.82,2.984,9.82,8.082v0.075
			C404.232,140.462,399.436,143.333,393.921,143.333z M402.27,134.947c0-4.192-3.25-6.381-8.008-6.381h-7.477v12.953h7.251
			c4.909,0,8.233-2.567,8.233-6.495V134.947z"/>
		<path fill="#4B4B4B" d="M410.69,153.19v-26.437h1.964v26.437H410.69z"/>
		<path fill="#4B4B4B" d="M430.216,128.566v24.625h-1.962v-24.625h-9.217v-1.813h20.396v1.813H430.216z"/>
		<path fill="#4B4B4B" d="M456.617,153.643c-7.555,0-13.146-6.006-13.146-13.595v-0.078c0-7.479,5.591-13.669,13.22-13.669
			c4.721,0,7.553,1.734,10.273,4.229l-1.397,1.435c-2.303-2.227-4.948-3.892-8.915-3.892c-6.346,0-11.14,5.175-11.14,11.821v0.077
			c0,6.687,4.872,11.897,11.179,11.897c3.814,0,6.42-1.474,9.102-4.117l1.322,1.284
			C464.319,151.792,461.299,153.643,456.617,153.643z"/>
		<path fill="#4B4B4B" d="M492.613,153.19v-12.388h-16.922v12.388h-1.964v-26.437h1.964v12.235h16.922v-12.235h1.964v26.437H492.613
			z"/>
		<path fill="#4B4B4B" d="M503.866,128.566v10.839h14.957v1.813h-14.957v11.972h-1.964v-26.437h18.62v1.813H503.866z"/>
		<path fill="#4B4B4B" d="M538.727,153.643c-8.008,0-13.26-6.383-13.26-13.595v-0.078c0-7.212,5.326-13.669,13.334-13.669
			c8.006,0,13.256,6.381,13.256,13.593c0.039,0.039,0.039,0.039,0,0.077C552.057,147.184,546.73,153.643,538.727,153.643z
			 M550.019,139.97c0-6.532-4.759-11.897-11.292-11.897c-6.536,0-11.218,5.289-11.218,11.821v0.077
			c0,6.534,4.759,11.897,11.292,11.897c6.534,0,11.218-5.288,11.218-11.819V139.97z"/>
		<path fill="#4B4B4B" d="M577.06,153.19l-8.423-10.951h-8.65v10.951h-1.964v-26.437h11.104c5.703,0,9.444,3.096,9.444,7.516v0.073
			c0,4.421-3.287,6.951-7.743,7.557l8.725,11.292H577.06z M576.606,134.342c0-3.547-2.796-5.776-7.592-5.776h-9.028v11.896h8.914
			c4.42,0,7.706-2.228,7.706-6.042V134.342z"/>
		<path fill="#4B4B4B" d="M605.496,153.19l-10.877-13.37l-6.569,6.647v6.722h-1.964v-26.437h1.964v17.371l16.842-17.371h2.683
			l-11.559,11.67l12.049,14.767H605.496z"/>
		<path fill="#4B4B4B" d="M636.352,128.566v24.625h-1.965v-24.625h-9.217v-1.813h20.395v1.813H636.352z"/>
		<path fill="#4B4B4B" d="M661.732,153.643c-8.008,0-13.26-6.383-13.26-13.595v-0.078c0-7.212,5.325-13.669,13.334-13.669
			c8.008,0,13.256,6.381,13.256,13.593c0.037,0.039,0.037,0.039,0,0.077C675.063,147.184,669.736,153.643,661.732,153.643z
			 M673.022,139.97c0-6.532-4.758-11.897-11.29-11.897c-6.535,0-11.219,5.289-11.219,11.821v0.077
			c0,6.534,4.758,11.897,11.293,11.897c6.532,0,11.216-5.288,11.216-11.819V139.97z"/>
		<path fill="#4B4B4B" d="M703.914,153.567c-4.229,0-7.477-1.397-10.65-4.229l1.283-1.472c2.908,2.679,5.591,3.926,9.481,3.926
			c3.965,0,6.687-2.227,6.687-5.249v-0.075c0-2.796-1.476-4.419-7.48-5.63c-6.344-1.284-8.914-3.436-8.914-7.439v-0.075
			c0-3.927,3.59-6.949,8.5-6.949c3.854,0,6.382,1.057,9.063,3.21l-1.246,1.55c-2.491-2.155-4.984-2.984-7.893-2.984
			c-3.892,0-6.459,2.228-6.459,4.983v0.077c0,2.794,1.437,4.492,7.706,5.777c6.12,1.247,8.686,3.438,8.686,7.29v0.075
			C712.677,150.621,709.014,153.567,703.914,153.567z"/>
		<path fill="#4B4B4B" d="M741.003,153.19l-3.361-7.404h-15.598l-3.36,7.404h-2.041l12.312-26.627h1.892l12.311,26.627H741.003z
			 M729.861,128.717l-6.986,15.294h13.936L729.861,128.717z"/>
		<path fill="#4B4B4B" d="M748.519,153.19v-26.437h1.964v24.623h15.522v1.814H748.519z"/>
		<path fill="#4B4B4B" d="M795.891,153.19l-3.361-7.404h-15.6l-3.362,7.404h-2.038l12.313-26.627h1.889l12.312,26.627H795.891z
			 M784.749,128.717l-6.99,15.294h13.938L784.749,128.717z"/>
		<path fill="#4B4B4B" d="M812.203,153.19h-8.799v-26.437h8.799c8.308,0,14.052,5.701,14.052,13.14v0.077
			C826.255,147.409,820.511,153.19,812.203,153.19z M824.215,139.97c0-6.27-4.646-11.404-12.012-11.404h-6.835v22.81h6.835
			c7.365,0,12.012-5.023,12.012-11.328V139.97z"/>
		<path fill="#4B4B4B" d="M848.498,128.566v10.839h14.957v1.813h-14.957v11.972h-1.964v-26.437h18.62v1.813H848.498z"/>
		<path fill="#4B4B4B" d="M882.98,153.643c-8.008,0-13.258-6.383-13.258-13.595v-0.078c0-7.212,5.324-13.669,13.332-13.669
			c8.009,0,13.258,6.381,13.258,13.593c0.037,0.039,0.037,0.039,0,0.077C896.313,147.184,890.985,153.643,882.98,153.643z
			 M894.271,139.97c0-6.532-4.758-11.897-11.291-11.897c-6.536,0-11.218,5.289-11.218,11.821v0.077
			c0,6.534,4.758,11.897,11.292,11.897c6.533,0,11.217-5.288,11.217-11.819V139.97z"/>
		<path fill="#4B4B4B" d="M921.313,153.19l-8.423-10.951h-8.648v10.951h-1.966v-26.437h11.106c5.702,0,9.442,3.096,9.442,7.516
			v0.073c0,4.421-3.287,6.951-7.743,7.557l8.725,11.292H921.313z M920.86,134.342c0-3.547-2.795-5.776-7.593-5.776h-9.026v11.896
			h8.913c4.418,0,7.706-2.228,7.706-6.042V134.342z"/>
		<path fill="#4B4B4B" d="M950.129,153.19l-10.875-13.37l-6.572,6.647v6.722h-1.964v-26.437h1.964v17.371l16.844-17.371h2.681
			l-11.555,11.67L952.7,153.19H950.129z"/>
	</g>
</g>
</svg>
