<?xml version="1.0" encoding="utf-8"?>
<!-- Generator: Adobe Illustrator 16.0.0, SVG Export Plug-In . SVG Version: 6.00 Build 0)  -->
<!DOCTYPE svg PUBLIC "-//W3C//DTD SVG 1.1//EN" "http://www.w3.org/Graphics/SVG/1.1/DTD/svg11.dtd">
<svg version="1.1" id="Layer_1" xmlns="http://www.w3.org/2000/svg" xmlns:xlink="http://www.w3.org/1999/xlink" x="0px" y="0px"
	 width="210.643px" height="209.334px" viewBox="0 0 210.643 209.334" enable-background="new 0 0 210.643 209.334"
	 xml:space="preserve">
<g>
	<g>
		<g>
			<defs>
				<rect id="SVGID_1_" x="6.396" y="7" width="196.74" height="196.742"/>
			</defs>
			<clipPath id="SVGID_2_">
				<use xlink:href="#SVGID_1_"  overflow="visible"/>
			</clipPath>
			<path clip-path="url(#SVGID_2_)" fill="#4B4B4B" d="M104.766,17.298c-48.641,0-88.072,39.432-88.072,88.073
				c0,48.642,39.432,88.075,88.072,88.075c48.642,0,88.074-39.434,88.074-88.075C192.84,56.73,153.407,17.298,104.766,17.298
				 M164.139,54.624c0,0-17.663,31.151-28.081,39.739c-8.021,6.668-11.313,4.71-15.743,6.351c-4.441,1.774-6.773,5.559-6.773,5.559
				s-2.404,3.356-6.046,8.438l38.596,51.979c0,0,1.478,2.027-0.592,3.57c-2.075,1.536-3.625-0.438-3.625-0.438l-37.591-50.63
				c-11.4,15.91-29.526,41.164-31.531,43.764c-5.131,6.377-8.556,5.238-9.881,4.419l-0.018,0.021c0,0-0.083-0.062-0.222-0.181
				c-0.149-0.104-0.228-0.176-0.228-0.176l0.017-0.022c-1.101-1.104-2.981-4.182,2.068-10.625
				c2.125-2.604,23.676-26.963,36.58-41.529L83.776,91.568c0,0-2.915,2.173-3.116,2.308c-1.951,1.447-3.963,2.436-6.342,2.081
				c-2.374-0.35-4.444-3.354-4.444-3.354L45.461,59.688c0,0-0.495-0.781,0.481-1.507c0.979-0.723,1.626-0.02,1.626-0.02
				l24.319,32.793c0,0,0.97,1.298,2.96,1.449c1.982,0.156,3.316-1.41,3.316-1.41s0.424-0.458,0.419-0.92
				c-0.005-0.459-0.27-0.799-0.27-0.799L52.503,54.468c0,0-0.485-0.772,0.462-1.474c0.947-0.703,1.635-0.048,1.635-0.048
				l24.821,33.472c0,0,0.154,0.25,0.688,0.483c0.535,0.241,1.057-0.125,1.057-0.125l2.999-2.221c0,0,0.501-0.397,0.428-0.978
				c-0.071-0.579-0.263-0.794-0.263-0.794L59.505,49.308c0,0-0.428-0.845,0.522-1.548c0.944-0.703,1.543-0.014,1.543-0.014
				l25.813,34.803c0,0,0.247,0.35,0.686,0.49c0.444,0.137,1-0.137,1-0.137s1.889-0.818,2.316-2.766
				c0.432-1.948-0.528-3.248-0.528-3.248L66.536,44.094c0,0-0.482-0.826,0.492-1.548c0.978-0.726,1.582-0.023,1.582-0.023
				l24.41,32.914c0,0,2.272,2.855,1.918,5.232c-0.352,2.376-1.881,4.015-3.832,5.465c-0.188,0.146-3.114,2.306-3.114,2.306
				l16.637,22.405c3.681-4.154,6.062-6.837,6.062-6.837s3.154-3.132,3.874-7.86c0.595-4.686-2.058-7.456,2.617-16.775
				c6.005-12.089,32.34-36.352,32.34-36.352s0.279-0.243,0.521-0.049c0.245,0.195-0.013,0.513-0.013,0.513l-20.021,26.281
				c0,0-1.125,1.351-0.062,2.194c1.065,0.849,2.269-0.384,2.269-0.384l21.717-25.223c0,0,0.244-0.332,0.563-0.076
				c0.325,0.257,0.039,0.554,0.039,0.554l-21.409,29.617c0,0-0.841,1.44,0.059,2.15c0.896,0.713,2.111-0.424,2.111-0.424
				l23.996-27.568c0,0,0.227-0.343,0.547-0.089c0.321,0.256,0.055,0.566,0.055,0.566l-19.65,26.867c0,0-0.927,1.453,0.141,2.299
				c1.066,0.845,2.127-0.557,2.127-0.557l21.057-25.457c0,0,0.256-0.322,0.497-0.13C164.311,54.299,164.139,54.624,164.139,54.624"
				/>
		</g>
	</g>
	<g>
		<g>
			<defs>
				<rect id="SVGID_3_" x="6.396" y="7" width="196.74" height="196.742"/>
			</defs>
			<clipPath id="SVGID_4_">
				<use xlink:href="#SVGID_3_"  overflow="visible"/>
			</clipPath>
			<path clip-path="url(#SVGID_4_)" fill="#4B4B4B" d="M104.766,7c-54.328,0-98.37,44.043-98.37,98.371
				c0,54.327,44.041,98.371,98.369,98.371c54.33,0,98.371-44.044,98.371-98.371C203.137,51.043,159.096,7,104.766,7
				 M104.766,198.226c-51.281,0-92.853-41.572-92.853-92.854c0-51.282,41.571-92.854,92.853-92.854
				c51.282,0,92.855,41.573,92.855,92.854S156.048,198.226,104.766,198.226"/>
		</g>
	</g>
</g>
<g>
	<g>
		<path fill="#FFFFFF" d="M96.371,174.416c-0.714,0.599-1.527,0.834-2.408,0.708c-0.694-0.1-1.365-0.542-1.976-1.311
			c-1.195,0.914-2.263,1.521-3.154,1.86c-0.891,0.341-1.793,0.392-2.675,0.167c-0.792-0.199-1.35-0.672-1.652-1.383
			c-0.304-0.712-0.271-1.479,0.072-2.312c0.665-1.638,2.107-3.689,4.09-6.402c1.979-2.717,3.526-4.895,4.758-6.406
			c0.976-0.335,1.807-0.622,2.51-0.845c0.703-0.224,1.096-0.339,1.191-0.339c0.186,0,0.313,0.17,0.384,0.512
			c0.071,0.342,0.063,0.754-0.03,1.234c-0.194,0.996-0.729,2.16-1.683,3.444c-0.955,1.285-2.159,2.519-3.656,3.642
			c-0.662,0.498-1.34,0.979-2.033,1.447c-1.062,1.74-1.771,3.004-2.051,3.854c-0.156,0.47-0.169,0.869-0.034,1.197
			c0.136,0.33,0.392,0.537,0.762,0.613c0.432,0.088,0.861,0.035,1.281-0.164c0.421-0.197,0.92-0.537,1.486-1.027
			c-0.238-0.812-0.241-1.598-0.032-2.365c0.337-1.24,0.969-2.337,1.844-3.334s1.619-1.487,2.288-1.436
			c0.264,0.021,0.452,0.174,0.569,0.461c0.117,0.289,0.135,0.662,0.049,1.117c-0.281,1.455-1.353,3.416-3.512,5.664
			c0.334,0.664,0.817,1.047,1.431,1.131c0.385,0.053,0.736,0.004,1.049-0.144c0.313-0.149,0.782-0.524,1.388-1.14
			C96.541,173.38,96.456,173.897,96.371,174.416z M91.299,166.574c1.641-1.183,2.857-2.384,3.732-3.519
			c0.872-1.136,1.342-2.027,1.473-2.633c0.054-0.246,0.055-0.449,0.006-0.607c-0.049-0.16-0.132-0.241-0.252-0.243
			C95.477,159.549,94.002,162.017,91.299,166.574z"/>
		<path fill="#FFFFFF" d="M106.239,174.96c-1.119,1.165-2.186,2.002-3.14,2.52c-0.954,0.52-2.017,0.737-3.15,0.65
			c-1.266-0.097-2.239-0.602-2.883-1.473c-0.645-0.873-0.839-1.947-0.626-3.225c0.317-1.908,1.231-3.564,2.596-5.056
			c1.367-1.489,2.652-2.237,4.004-2.207c0.703,0.017,1.255,0.247,1.672,0.698c0.417,0.449,0.628,1.038,0.617,1.764
			c-0.021,1.91-1.822,3.528-5.733,4.46c0.139,1.81,0.99,2.785,2.512,2.859c0.592,0.026,1.168-0.116,1.715-0.433
			c0.546-0.313,1.375-1.029,2.415-2.166C106.238,173.89,106.239,174.425,106.239,174.96z M99.599,172.153
			c2.24-0.516,3.356-1.736,3.45-3.531c0.049-0.891-0.195-1.341-0.734-1.357c-0.51-0.016-1.029,0.433-1.598,1.332
			C100.151,169.498,99.767,170.678,99.599,172.153z"/>
		<path fill="#FFFFFF" d="M113.854,174.625c-0.963,1.237-1.876,2.16-2.677,2.76c-0.801,0.601-1.604,0.915-2.377,0.939
			c-0.801,0.026-1.462-0.302-1.959-0.972c-0.498-0.672-0.734-1.561-0.733-2.658c0-0.967,0.229-2.244,0.638-3.834
			c0.167-0.705,0.328-1.411,0.482-2.117c-0.304,0.021-0.608,0.042-0.913,0.061c0.125-0.729,0.245-1.462,0.36-2.193
			c0.362-0.02,0.724-0.041,1.085-0.062c0.314-1.455,0.599-2.906,0.854-4.357c0.92-0.266,1.826-0.532,2.717-0.801
			c-0.182,1.6-0.398,3.211-0.651,4.826c0.531-0.055,1.062-0.111,1.591-0.173c-0.042,0.71-0.088,1.421-0.14,2.134
			c-0.604,0.088-1.209,0.168-1.817,0.246c-0.184,1.045-0.382,2.092-0.596,3.141c-0.225,1.092-0.33,1.959-0.295,2.6
			c0.023,0.436,0.145,0.788,0.371,1.053c0.224,0.266,0.503,0.389,0.834,0.372c0.455-0.022,0.896-0.201,1.31-0.528
			c0.414-0.328,1.004-0.998,1.717-2.006C113.72,173.576,113.787,174.101,113.854,174.625z"/>
		<path fill="#FFFFFF" d="M127.79,172.263c-0.89,1.538-1.643,2.605-2.135,3.131c-0.494,0.528-1.038,0.863-1.614,0.992
			c-1.454,0.329-2.449-0.75-2.989-3.164c-0.543,1.375-1.158,2.438-1.797,3.158c-0.64,0.721-1.392,1.148-2.224,1.26
			c-0.814,0.108-1.569-0.182-2.232-0.873c-0.665-0.69-1.051-1.595-1.187-2.688c-0.17-1.37,0.025-2.704,0.52-3.989
			c0.495-1.285,1.166-2.34,2.013-3.167c0.848-0.828,1.611-1.264,2.354-1.332c0.938-0.085,1.725,0.338,2.398,1.261
			c0.647-0.574,1.271-1.142,1.872-1.693c0.21-0.026,0.42-0.053,0.629-0.08c0.107,1.218,0.19,2.457,0.249,3.714
			c0.073,1.901,0.18,3.222,0.402,3.897c0.229,0.713,0.611,1.012,1.146,0.891c0.341-0.077,0.658-0.334,0.942-0.764
			c0.281-0.428,0.659-1.068,1.1-1.9C127.422,171.364,127.606,171.813,127.79,172.263z M118.413,174.856
			c0.886-0.127,1.562-1.017,1.94-2.604c0.378-1.59,0.354-2.978,0.016-4.204c-0.133-0.477-0.333-0.838-0.599-1.085
			s-0.557-0.354-0.879-0.321c-0.767,0.078-1.31,0.883-1.719,2.461c-0.41,1.58-0.542,3.023-0.308,4.301
			c0.089,0.481,0.275,0.859,0.565,1.129C117.72,174.8,118.05,174.908,118.413,174.856z"/>
	</g>
</g>
</svg>
