<?xml version="1.0" encoding="utf-8"?>
<!-- Generator: Adobe Illustrator 16.0.0, SVG Export Plug-In . SVG Version: 6.00 Build 0)  -->
<!DOCTYPE svg PUBLIC "-//W3C//DTD SVG 1.1//EN" "http://www.w3.org/Graphics/SVG/1.1/DTD/svg11.dtd">
<svg version="1.1" id="Layer_1" xmlns="http://www.w3.org/2000/svg" xmlns:xlink="http://www.w3.org/1999/xlink" x="0px" y="0px"
	 width="964.285px" height="209.334px" viewBox="0 0 964.285 209.334" enable-background="new 0 0 964.285 209.334"
	 xml:space="preserve">
<g>
	<g>
		<defs>
			<rect id="SVGID_1_" x="6.396" y="7" width="196.74" height="196.742"/>
		</defs>
		<clipPath id="SVGID_2_">
			<use xlink:href="#SVGID_1_"  overflow="visible"/>
		</clipPath>
		<path clip-path="url(#SVGID_2_)" fill="#4B4B4B" d="M104.766,17.298c-48.641,0-88.072,39.432-88.072,88.073
			c0,48.642,39.432,88.075,88.072,88.075c48.642,0,88.074-39.434,88.074-88.075C192.84,56.73,153.407,17.298,104.766,17.298
			 M164.139,54.624c0,0-17.663,31.151-28.081,39.739c-8.021,6.668-11.313,4.71-15.743,6.351c-4.441,1.774-6.773,5.559-6.773,5.559
			s-2.404,3.356-6.046,8.438l38.596,51.98c0,0,1.478,2.027-0.592,3.57c-2.075,1.536-3.625-0.439-3.625-0.439l-37.591-50.629
			c-11.4,15.91-29.526,41.164-31.531,43.763c-5.131,6.377-8.556,5.239-9.881,4.419l-0.018,0.02c0,0-0.083-0.062-0.222-0.18
			c-0.149-0.105-0.228-0.176-0.228-0.176l0.017-0.023c-1.101-1.103-2.981-4.181,2.068-10.625
			c2.125-2.604,23.676-26.963,36.58-41.529L83.776,91.568c0,0-2.915,2.173-3.116,2.308c-1.951,1.447-3.963,2.436-6.342,2.081
			c-2.374-0.35-4.444-3.354-4.444-3.354L45.461,59.688c0,0-0.495-0.781,0.481-1.507c0.979-0.723,1.626-0.02,1.626-0.02
			l24.319,32.793c0,0,0.97,1.298,2.96,1.449c1.982,0.156,3.316-1.41,3.316-1.41s0.424-0.458,0.419-0.92
			c-0.005-0.459-0.27-0.799-0.27-0.799L52.503,54.468c0,0-0.485-0.772,0.462-1.474c0.947-0.703,1.635-0.048,1.635-0.048
			l24.821,33.472c0,0,0.154,0.25,0.688,0.483c0.535,0.241,1.057-0.125,1.057-0.125l2.999-2.221c0,0,0.501-0.397,0.428-0.978
			c-0.071-0.579-0.263-0.794-0.263-0.794L59.505,49.308c0,0-0.428-0.845,0.522-1.548c0.944-0.703,1.543-0.014,1.543-0.014
			l25.813,34.803c0,0,0.247,0.35,0.686,0.49c0.444,0.137,1-0.137,1-0.137s1.889-0.818,2.316-2.766
			c0.432-1.948-0.528-3.248-0.528-3.248L66.536,44.094c0,0-0.482-0.826,0.492-1.548c0.978-0.726,1.582-0.023,1.582-0.023
			l24.41,32.914c0,0,2.272,2.855,1.918,5.232c-0.352,2.376-1.881,4.015-3.832,5.465c-0.188,0.146-3.114,2.306-3.114,2.306
			l16.637,22.405c3.681-4.154,6.062-6.837,6.062-6.837s3.154-3.132,3.874-7.86c0.595-4.686-2.058-7.456,2.617-16.775
			c6.005-12.089,32.34-36.352,32.34-36.352s0.279-0.243,0.521-0.049c0.245,0.195-0.013,0.513-0.013,0.513l-20.021,26.281
			c0,0-1.125,1.351-0.062,2.194c1.065,0.849,2.269-0.384,2.269-0.384l21.717-25.223c0,0,0.244-0.332,0.563-0.076
			c0.325,0.257,0.039,0.554,0.039,0.554l-21.409,29.617c0,0-0.841,1.44,0.059,2.15c0.896,0.713,2.111-0.424,2.111-0.424
			l23.996-27.568c0,0,0.227-0.343,0.547-0.089c0.321,0.256,0.055,0.566,0.055,0.566l-19.65,26.867c0,0-0.927,1.453,0.141,2.299
			c1.066,0.845,2.127-0.557,2.127-0.557l21.057-25.457c0,0,0.256-0.322,0.497-0.13C164.311,54.299,164.139,54.624,164.139,54.624"/>
	</g>
	<g>
		<defs>
			<rect id="SVGID_3_" x="6.396" y="7" width="196.74" height="196.742"/>
		</defs>
		<clipPath id="SVGID_4_">
			<use xlink:href="#SVGID_3_"  overflow="visible"/>
		</clipPath>
		<path clip-path="url(#SVGID_4_)" fill="#4B4B4B" d="M104.766,7c-54.328,0-98.37,44.043-98.37,98.371
			c0,54.327,44.041,98.371,98.369,98.371c54.33,0,98.371-44.044,98.371-98.371C203.137,51.043,159.096,7,104.766,7 M104.766,198.226
			c-51.281,0-92.853-41.572-92.853-92.854s41.571-92.854,92.853-92.854c51.282,0,92.855,41.573,92.855,92.854
			S156.048,198.226,104.766,198.226"/>
	</g>
</g>
<g>
	<g>
		<path fill="#4B4B4B" d="M251.672,101.747V57.852h33.111v8.59h-23.517v8.906h20.695v8.591h-20.695v9.219h23.831v8.589H251.672z"/>
		<path fill="#4B4B4B" d="M318.068,102.062h-8.529l-17.746-44.209h10.66l11.477,30.915l11.475-30.915h10.41L318.068,102.062z"/>
		<path fill="#4B4B4B" d="M342.275,101.747V57.852h33.111v8.59H351.87v8.906h20.695v8.591H351.87v9.219h23.831v8.589H342.275z"/>
		<path fill="#4B4B4B" d="M410.193,101.747l-9.406-14.046h-7.589v14.046h-9.657V57.852h20.066c10.348,0,16.555,5.454,16.555,14.484
			v0.126c0,7.086-3.824,11.539-9.404,13.607l10.724,15.677L410.193,101.747L410.193,101.747z M410.382,72.839
			c0-4.139-2.886-6.271-7.589-6.271h-9.595v12.604h9.784c4.701,0,7.398-2.507,7.398-6.209L410.382,72.839L410.382,72.839z"/>
		<path fill="#4B4B4B" d="M450.041,84.251v17.496h-9.655V84.44l-16.871-26.588h11.289l10.473,17.622l10.661-17.622h10.975
			L450.041,84.251z"/>
		<path fill="#4B4B4B" d="M494.883,101.747V57.852h9.658v35.117h21.885v8.778H494.883z"/>
		<path fill="#4B4B4B" d="M568.131,101.747l-4.015-9.845h-18.562l-4.014,9.845h-9.846l18.812-44.209h8.905l18.812,44.209H568.131z
			 M554.836,69.139l-5.833,14.236h11.665L554.836,69.139z"/>
		<path fill="#4B4B4B" d="M600.428,102.376c-6.646,0-13.354-2.321-18.625-7.024l5.707-6.836c3.952,3.26,8.091,5.33,13.106,5.33
			c3.95,0,6.333-1.567,6.333-4.139v-0.126c0-2.445-1.505-3.7-8.84-5.58c-8.843-2.259-14.55-4.704-14.55-13.421v-0.125
			c0-7.965,6.396-13.233,15.362-13.233c6.397,0,11.852,2.006,16.304,5.583l-5.016,7.274c-3.889-2.697-7.713-4.327-11.412-4.327
			c-3.701,0-5.645,1.694-5.645,3.824v0.126c0,2.883,1.88,3.826,9.469,5.771c8.904,2.319,13.923,5.517,13.923,13.167v0.126
			C616.546,97.482,609.896,102.376,600.428,102.376z"/>
		<path fill="#4B4B4B" d="M644.954,66.756v34.991h-9.657V66.756H621.94v-8.904h36.369v8.904H644.954z"/>
		<path fill="#4B4B4B" d="M721.339,101.747V73.089L708.985,91.84h-0.251l-12.229-18.563v28.47h-9.469V57.852h10.409l11.539,18.561
			l11.537-18.561h10.408v43.895H721.339z"/>
		<path fill="#4B4B4B" d="M762.731,102.5c-13.547,0-23.266-10.095-23.266-22.575v-0.126c0-12.479,9.844-22.7,23.392-22.7
			c13.545,0,23.266,10.095,23.266,22.575v0.125C786.123,92.279,776.276,102.5,762.731,102.5z M776.026,79.799
			c0-7.525-5.52-13.796-13.295-13.796c-7.776,0-13.169,6.145-13.169,13.671v0.125c0,7.526,5.52,13.797,13.295,13.797
			s13.169-6.147,13.169-13.671V79.799z"/>
		<path fill="#4B4B4B" d="M821.179,101.747l-9.404-14.046h-7.589v14.046h-9.656V57.852h20.066c10.348,0,16.555,5.454,16.555,14.484
			v0.126c0,7.086-3.824,11.539-9.406,13.607l10.724,15.677L821.179,101.747L821.179,101.747z M821.369,72.839
			c0-4.139-2.886-6.271-7.589-6.271h-9.595v12.604h9.782c4.703,0,7.4-2.507,7.4-6.209L821.369,72.839L821.369,72.839z"/>
		<path fill="#4B4B4B" d="M855.736,102.376c-6.648,0-13.358-2.321-18.625-7.024l5.705-6.836c3.951,3.26,8.091,5.33,13.105,5.33
			c3.952,0,6.335-1.567,6.335-4.139v-0.126c0-2.445-1.506-3.7-8.842-5.58c-8.842-2.259-14.55-4.704-14.55-13.421v-0.125
			c0-7.965,6.396-13.233,15.365-13.233c6.396,0,11.851,2.006,16.304,5.583l-5.016,7.274c-3.89-2.697-7.716-4.327-11.414-4.327
			c-3.7,0-5.646,1.694-5.646,3.824v0.126c0,2.883,1.882,3.826,9.471,5.771c8.904,2.319,13.923,5.517,13.923,13.167v0.126
			C871.854,97.482,865.205,102.376,855.736,102.376z"/>
		<path fill="#4B4B4B" d="M879.631,101.747V57.852h33.111v8.59h-23.517v8.906h20.694v8.591h-20.693v9.219h23.829v8.589H879.631z"/>
		<path fill="#4B4B4B" d="M921.525,101.747V57.852h9.656v35.117h21.886v8.778H921.525z"/>
	</g>
	<g>
		<path fill="#4B4B4B" d="M254.552,128.565v10.84h14.957v1.812h-14.957v11.973h-1.964v-26.438h18.618v1.812H254.552L254.552,128.565
			z"/>
		<path fill="#4B4B4B" d="M297.013,153.19l-8.421-10.951h-8.648v10.951h-1.966v-26.438h11.104c5.702,0,9.441,3.096,9.441,7.516
			v0.073c0,4.421-3.284,6.951-7.741,7.558l8.726,11.291H297.013L297.013,153.19z M296.561,134.342c0-3.547-2.795-5.776-7.593-5.776
			h-9.024v11.896h8.913c4.419,0,7.704-2.229,7.704-6.042V134.342L296.561,134.342z"/>
		<path fill="#4B4B4B" d="M317.635,153.644c-8.009,0-13.259-6.384-13.259-13.596v-0.078c0-7.212,5.326-13.669,13.334-13.669
			c8.007,0,13.256,6.382,13.256,13.593c0.039,0.039,0.039,0.039,0,0.078C330.966,147.185,325.643,153.644,317.635,153.644z
			 M328.928,139.97c0-6.531-4.759-11.896-11.293-11.896c-6.535,0-11.217,5.289-11.217,11.82v0.078
			c0,6.533,4.758,11.896,11.292,11.896c6.533,0,11.218-5.288,11.218-11.819L328.928,139.97L328.928,139.97z"/>
		<path fill="#4B4B4B" d="M359.896,153.19v-22.963l-10.462,15.219h-0.15l-10.463-15.219v22.963h-1.889v-26.438h1.852l10.611,15.635
			l10.614-15.635h1.851v26.438H359.896z"/>
		<path fill="#4B4B4B" d="M393.921,143.333h-7.136v9.857h-1.966v-26.438h9.593c5.818,0,9.82,2.984,9.82,8.082v0.075
			C404.232,140.462,399.436,143.333,393.921,143.333z M402.27,134.947c0-4.192-3.25-6.382-8.007-6.382h-7.477v12.953h7.251
			c4.909,0,8.232-2.566,8.232-6.494L402.27,134.947L402.27,134.947z"/>
		<path fill="#4B4B4B" d="M410.69,153.19v-26.438h1.964v26.438H410.69z"/>
		<path fill="#4B4B4B" d="M430.216,128.565v24.625h-1.962v-24.625h-9.217v-1.812h20.396v1.812H430.216z"/>
		<path fill="#4B4B4B" d="M456.617,153.644c-7.555,0-13.146-6.006-13.146-13.596v-0.078c0-7.479,5.592-13.669,13.221-13.669
			c4.721,0,7.553,1.734,10.272,4.229l-1.396,1.435c-2.304-2.228-4.948-3.892-8.915-3.892c-6.347,0-11.141,5.175-11.141,11.82v0.078
			c0,6.687,4.872,11.896,11.18,11.896c3.813,0,6.42-1.475,9.102-4.117l1.322,1.284C464.319,151.792,461.299,153.644,456.617,153.644
			z"/>
		<path fill="#4B4B4B" d="M492.613,153.19v-12.389h-16.922v12.389h-1.965v-26.438h1.965v12.234h16.922v-12.234h1.964v26.438H492.613
			z"/>
		<path fill="#4B4B4B" d="M503.866,128.565v10.84h14.957v1.812h-14.957v11.973h-1.964v-26.438h18.62v1.812H503.866L503.866,128.565z
			"/>
		<path fill="#4B4B4B" d="M538.727,153.644c-8.008,0-13.26-6.384-13.26-13.596v-0.078c0-7.212,5.326-13.669,13.334-13.669
			c8.006,0,13.256,6.382,13.256,13.593c0.039,0.039,0.039,0.039,0,0.078C552.057,147.185,546.73,153.644,538.727,153.644z
			 M550.019,139.97c0-6.531-4.759-11.896-11.292-11.896c-6.535,0-11.218,5.289-11.218,11.82v0.078
			c0,6.533,4.759,11.896,11.292,11.896c6.534,0,11.218-5.288,11.218-11.819V139.97z"/>
		<path fill="#4B4B4B" d="M577.06,153.19l-8.423-10.951h-8.649v10.951h-1.964v-26.438h11.104c5.703,0,9.444,3.096,9.444,7.516v0.073
			c0,4.421-3.287,6.951-7.743,7.558l8.725,11.291H577.06L577.06,153.19z M576.606,134.342c0-3.547-2.797-5.776-7.593-5.776h-9.027
			v11.896h8.914c4.42,0,7.706-2.229,7.706-6.042V134.342z"/>
		<path fill="#4B4B4B" d="M605.496,153.19l-10.877-13.371l-6.569,6.647v6.722h-1.964v-26.437h1.964v17.371l16.842-17.371h2.684
			l-11.56,11.67l12.049,14.767h-2.568V153.19z"/>
		<path fill="#4B4B4B" d="M636.352,128.565v24.625h-1.965v-24.625h-9.217v-1.812h20.396v1.812H636.352z"/>
		<path fill="#4B4B4B" d="M661.732,153.644c-8.009,0-13.261-6.384-13.261-13.596v-0.078c0-7.212,5.325-13.669,13.334-13.669
			s13.256,6.382,13.256,13.593c0.037,0.039,0.037,0.039,0,0.078C675.062,147.185,669.736,153.644,661.732,153.644z M673.021,139.97
			c0-6.531-4.758-11.896-11.289-11.896c-6.535,0-11.22,5.289-11.22,11.82v0.078c0,6.533,4.759,11.896,11.293,11.896
			c6.532,0,11.217-5.288,11.217-11.819L673.021,139.97L673.021,139.97z"/>
		<path fill="#4B4B4B" d="M703.914,153.567c-4.229,0-7.477-1.397-10.65-4.229l1.283-1.472c2.908,2.679,5.591,3.926,9.481,3.926
			c3.965,0,6.687-2.227,6.687-5.249v-0.075c0-2.796-1.476-4.419-7.479-5.63c-6.345-1.284-8.914-3.437-8.914-7.438v-0.075
			c0-3.927,3.59-6.949,8.5-6.949c3.854,0,6.382,1.058,9.062,3.21l-1.246,1.55c-2.49-2.155-4.983-2.983-7.893-2.983
			c-3.892,0-6.459,2.228-6.459,4.982v0.077c0,2.794,1.437,4.492,7.706,5.776c6.12,1.248,8.686,3.438,8.686,7.291v0.074
			C712.677,150.621,709.014,153.567,703.914,153.567z"/>
		<path fill="#4B4B4B" d="M741.003,153.19l-3.361-7.404h-15.598l-3.36,7.404h-2.041l12.312-26.627h1.892l12.312,26.627H741.003z
			 M729.861,128.717l-6.986,15.294h13.936L729.861,128.717z"/>
		<path fill="#4B4B4B" d="M748.519,153.19v-26.438h1.965v24.623h15.521v1.814H748.519z"/>
		<path fill="#4B4B4B" d="M795.891,153.19l-3.36-7.404H776.93l-3.361,7.404h-2.038l12.312-26.627h1.89l12.312,26.627H795.891z
			 M784.749,128.717l-6.99,15.294h13.938L784.749,128.717z"/>
		<path fill="#4B4B4B" d="M812.203,153.19h-8.799v-26.438h8.799c8.308,0,14.052,5.701,14.052,13.141v0.076
			C826.255,147.409,820.511,153.19,812.203,153.19z M824.215,139.97c0-6.27-4.646-11.404-12.012-11.404h-6.835v22.811h6.835
			c7.365,0,12.012-5.023,12.012-11.328V139.97z"/>
		<path fill="#4B4B4B" d="M848.498,128.565v10.84h14.957v1.812h-14.957v11.973h-1.964v-26.438h18.62v1.812H848.498L848.498,128.565z
			"/>
		<path fill="#4B4B4B" d="M882.98,153.644c-8.009,0-13.259-6.384-13.259-13.596v-0.078c0-7.212,5.324-13.669,13.332-13.669
			c8.009,0,13.258,6.382,13.258,13.593c0.037,0.039,0.037,0.039,0,0.078C896.312,147.185,890.985,153.644,882.98,153.644z
			 M894.271,139.97c0-6.531-4.759-11.896-11.291-11.896c-6.536,0-11.219,5.289-11.219,11.82v0.078
			c0,6.533,4.758,11.896,11.292,11.896c6.533,0,11.217-5.288,11.217-11.819L894.271,139.97L894.271,139.97z"/>
		<path fill="#4B4B4B" d="M921.312,153.19l-8.423-10.951h-8.647v10.951h-1.966v-26.438h11.105c5.702,0,9.442,3.096,9.442,7.516
			v0.073c0,4.421-3.287,6.951-7.743,7.558l8.725,11.291H921.312L921.312,153.19z M920.86,134.342c0-3.547-2.795-5.776-7.594-5.776
			h-9.025v11.896h8.913c4.418,0,7.706-2.229,7.706-6.042V134.342z"/>
		<path fill="#4B4B4B" d="M950.129,153.19l-10.875-13.371l-6.572,6.647v6.722h-1.964v-26.437h1.964v17.371l16.845-17.371h2.681
			l-11.555,11.67L952.7,153.19H950.129z"/>
	</g>
</g>
<g>
	<g>
		<path fill="#FFFFFF" d="M96.371,174.416c-0.714,0.599-1.527,0.834-2.408,0.708c-0.694-0.1-1.365-0.542-1.976-1.311
			c-1.195,0.914-2.263,1.522-3.154,1.861c-0.891,0.34-1.793,0.391-2.675,0.167c-0.792-0.2-1.35-0.672-1.652-1.383
			c-0.304-0.712-0.271-1.479,0.072-2.313c0.665-1.637,2.107-3.689,4.09-6.402c1.979-2.717,3.526-4.895,4.758-6.406
			c0.976-0.335,1.807-0.622,2.51-0.845c0.703-0.224,1.096-0.339,1.191-0.339c0.186,0,0.313,0.17,0.384,0.512
			c0.071,0.342,0.063,0.754-0.03,1.234c-0.194,0.996-0.729,2.16-1.683,3.445c-0.955,1.285-2.159,2.518-3.656,3.641
			c-0.662,0.498-1.34,0.98-2.033,1.447c-1.062,1.741-1.771,3.004-2.051,3.854c-0.156,0.47-0.169,0.869-0.034,1.198
			c0.136,0.33,0.392,0.537,0.762,0.613c0.432,0.088,0.861,0.035,1.281-0.164c0.421-0.197,0.92-0.537,1.486-1.028
			c-0.238-0.812-0.241-1.597-0.032-2.365c0.337-1.24,0.969-2.337,1.844-3.334s1.619-1.487,2.288-1.435
			c0.264,0.021,0.452,0.174,0.569,0.461c0.117,0.289,0.135,0.662,0.049,1.117c-0.281,1.455-1.353,3.416-3.512,5.664
			c0.334,0.664,0.817,1.047,1.431,1.131c0.385,0.053,0.736,0.004,1.049-0.144c0.313-0.149,0.782-0.524,1.388-1.14
			C96.541,173.38,96.456,173.897,96.371,174.416z M91.299,166.574c1.641-1.183,2.857-2.384,3.732-3.519
			c0.872-1.135,1.342-2.027,1.473-2.632c0.054-0.246,0.055-0.45,0.006-0.608c-0.049-0.16-0.132-0.241-0.252-0.243
			C95.477,159.549,94.002,162.017,91.299,166.574z"/>
		<path fill="#FFFFFF" d="M106.239,174.96c-1.119,1.165-2.186,2.002-3.14,2.52c-0.954,0.519-2.017,0.737-3.15,0.65
			c-1.266-0.097-2.239-0.602-2.883-1.473c-0.645-0.873-0.839-1.947-0.626-3.225c0.317-1.908,1.231-3.564,2.596-5.055
			c1.367-1.49,2.652-2.238,4.004-2.207c0.703,0.016,1.255,0.247,1.672,0.698c0.417,0.45,0.628,1.038,0.617,1.764
			c-0.021,1.91-1.822,3.528-5.733,4.46c0.139,1.809,0.99,2.785,2.512,2.859c0.592,0.027,1.168-0.116,1.715-0.432
			c0.546-0.314,1.375-1.03,2.415-2.166C106.238,173.89,106.239,174.425,106.239,174.96z M99.599,172.153
			c2.24-0.516,3.356-1.736,3.45-3.531c0.049-0.891-0.195-1.341-0.734-1.357c-0.51-0.016-1.029,0.432-1.598,1.332
			C100.151,169.498,99.767,170.678,99.599,172.153z"/>
		<path fill="#FFFFFF" d="M113.854,174.625c-0.963,1.237-1.876,2.16-2.677,2.76c-0.801,0.601-1.604,0.915-2.377,0.939
			c-0.801,0.026-1.462-0.302-1.959-0.972c-0.498-0.672-0.734-1.56-0.733-2.658c0-0.967,0.229-2.244,0.638-3.834
			c0.167-0.705,0.328-1.411,0.482-2.117c-0.304,0.021-0.608,0.042-0.913,0.061c0.125-0.73,0.245-1.462,0.36-2.193
			c0.362-0.02,0.724-0.041,1.085-0.063c0.314-1.455,0.599-2.907,0.854-4.358c0.92-0.265,1.826-0.532,2.717-0.801
			c-0.182,1.6-0.398,3.211-0.651,4.827c0.531-0.055,1.062-0.112,1.591-0.173c-0.042,0.71-0.088,1.421-0.14,2.134
			c-0.604,0.087-1.209,0.168-1.817,0.246c-0.184,1.045-0.382,2.091-0.596,3.14c-0.225,1.092-0.33,1.959-0.295,2.6
			c0.023,0.436,0.145,0.788,0.371,1.053c0.224,0.266,0.503,0.389,0.834,0.372c0.455-0.022,0.896-0.201,1.31-0.528
			c0.414-0.328,1.004-0.998,1.717-2.006C113.72,173.576,113.787,174.101,113.854,174.625z"/>
		<path fill="#FFFFFF" d="M127.79,172.263c-0.89,1.538-1.643,2.605-2.135,3.131c-0.494,0.528-1.038,0.863-1.614,0.992
			c-1.454,0.329-2.449-0.75-2.989-3.164c-0.543,1.375-1.158,2.438-1.797,3.158c-0.64,0.721-1.392,1.148-2.224,1.26
			c-0.814,0.108-1.569-0.182-2.232-0.873c-0.665-0.691-1.051-1.595-1.187-2.689c-0.17-1.37,0.025-2.704,0.52-3.989
			c0.495-1.286,1.166-2.34,2.013-3.167c0.848-0.828,1.611-1.264,2.354-1.332c0.938-0.085,1.725,0.338,2.398,1.26
			c0.647-0.574,1.271-1.141,1.872-1.693c0.21-0.026,0.42-0.053,0.629-0.08c0.107,1.218,0.19,2.457,0.249,3.714
			c0.073,1.901,0.18,3.221,0.402,3.897c0.229,0.713,0.611,1.012,1.146,0.891c0.341-0.077,0.658-0.334,0.942-0.764
			c0.281-0.428,0.659-1.068,1.1-1.9C127.422,171.364,127.606,171.813,127.79,172.263z M118.413,174.856
			c0.886-0.127,1.562-1.016,1.94-2.604c0.378-1.59,0.354-2.978,0.016-4.204c-0.133-0.477-0.333-0.838-0.599-1.085
			s-0.557-0.354-0.879-0.321c-0.767,0.078-1.31,0.883-1.719,2.461c-0.41,1.58-0.542,3.023-0.308,4.301
			c0.089,0.481,0.275,0.859,0.565,1.128C117.72,174.8,118.05,174.908,118.413,174.856z"/>
	</g>
</g>
</svg>
