<?xml version="1.0" encoding="utf-8"?>
<!-- Generator: Adobe Illustrator 16.0.0, SVG Export Plug-In . SVG Version: 6.00 Build 0)  -->
<!DOCTYPE svg PUBLIC "-//W3C//DTD SVG 1.1//EN" "http://www.w3.org/Graphics/SVG/1.1/DTD/svg11.dtd">
<svg version="1.1" id="Layer_1" xmlns="http://www.w3.org/2000/svg" xmlns:xlink="http://www.w3.org/1999/xlink" x="0px" y="0px"
	 width="100px" height="85.416px" viewBox="0 0 100 85.416" enable-background="new 0 0 100 85.416" xml:space="preserve">
<g>
	<path d="M60.082,20.986H39.918c-3.231,0-5.851,2.618-5.851,5.85v27.44c0,3.23,2.62,5.852,5.851,5.852h0.033v19.438
		c0,3.23,2.546,5.852,5.689,5.852h8.721c3.141,0,5.688-2.621,5.688-5.852V60.128h0.032c3.23,0,5.852-2.619,5.852-5.852v-27.44
		C65.932,23.604,63.312,20.986,60.082,20.986z"/>
	<circle cx="50" cy="9.55" r="9.55"/>
</g>
<g>
	<path d="M94.986,23.268H77.708c-2.771,0-5.015,2.245-5.015,5.014v23.514c0,2.771,2.244,5.016,5.015,5.016h0.028v16.654
		c0,2.77,2.182,5.014,4.873,5.014h7.475c2.691,0,4.874-2.244,4.874-5.014V56.812h0.026c2.771,0,5.016-2.246,5.016-5.018V28.281
		C100,25.513,97.756,23.268,94.986,23.268z"/>
	<circle cx="86.348" cy="13.469" r="8.184"/>
</g>
<g>
	<path d="M22.292,23.268H5.014C2.245,23.268,0,25.513,0,28.281v23.513c0,2.771,2.245,5.018,5.014,5.018h0.028v16.652
		c0,2.771,2.184,5.016,4.874,5.016h7.474c2.692,0,4.874-2.244,4.874-5.016V56.812h0.028c2.769,0,5.014-2.246,5.014-5.018V28.281
		C27.305,25.513,25.06,23.268,22.292,23.268z"/>
	<circle cx="13.653" cy="13.469" r="8.183"/>
</g>
</svg>
