<?xml version="1.0" encoding="utf-8"?>
<!-- Generator: Adobe Illustrator 16.0.0, SVG Export Plug-In . SVG Version: 6.00 Build 0)  -->
<!DOCTYPE svg PUBLIC "-//W3C//DTD SVG 1.1//EN" "http://www.w3.org/Graphics/SVG/1.1/DTD/svg11.dtd">
<svg version="1.1" id="Layer_1" xmlns="http://www.w3.org/2000/svg" xmlns:xlink="http://www.w3.org/1999/xlink" x="0px" y="0px"
	 width="100px" height="100px" viewBox="0 0 100 100" enable-background="new 0 0 100 100" xml:space="preserve">
<g id="Your_Icon">
	<g>
		<path d="M61.463,73.962c-1.689,0-3.38,0-5.068,0c-0.06-7.896,2.306-12.987,5.231-17.825c3.572-5.902,8.858-10.586,8.179-20.113
			c-0.521-7.235-3.988-12.394-8.179-16.354c-4.159-3.934-10.687-6.83-18.151-6.378C30.711,14.066,20.07,24.264,20.09,38.148
			c0.012,7.599,4.961,13.179,8.34,18.315c3.131,4.761,5.555,9.683,5.725,17.498c-1.744,0-3.488,0-5.233,0
			c0.247-14.672-12.71-19.838-13.899-33.36c-0.854-9.696,2.789-17.265,7.522-22.566c4.774-5.35,11.765-9.399,20.769-9.975
			c10.254-0.658,17.848,3.784,22.894,8.83c5.054,5.053,9.504,12.864,8.831,22.895C74.118,53.473,61.154,58.625,61.463,73.962z"/>
		<path d="M43.802,23.759c4.363-0.799,7.62,2.513,7.195,6.541c-0.713,6.761-10.796,6.888-11.938,0.654
			C38.341,27.027,40.779,24.312,43.802,23.759z"/>
		<path d="M48.381,34.551c5.725-0.015,6.328,0,7.195,2.453c0.582,1.65,0.162,5.126,0.162,8.34c0,5.711,1.156,11.123-4.741,10.465
			c0,6.051,0,12.102,0,18.152c-4.034,0-8.067,0-12.101,0c0-5.996,0-11.992,0-17.988c-5.433,0.348-4.744-4.498-4.744-10.302
			c0-3.08-0.351-6.744,0.164-8.34c0.61-1.894,0.736-2.698,7.033-2.78H48.381z"/>
		<path d="M59.174,77.723c-9.375,0-18.751,0-28.127,0c-0.654,0-1.309,0-1.962,0c-0.004,0.071-0.003,0.142,0,0.211v1.752v1.635v1.363
			c0,1.084,0.878,1.963,1.962,1.963h6.526c0.059,4.073,3.377,7.358,7.465,7.358c4.087,0,7.405-3.285,7.464-7.358h6.672
			c1.083,0,1.963-0.879,1.963-1.963V81.32v-1.637v-1.961C60.48,77.723,59.828,77.723,59.174,77.723z"/>
	</g>
</g>
</svg>
