<?xml version="1.0" encoding="utf-8"?>
<!-- Generator: Adobe Illustrator 16.0.0, SVG Export Plug-In . SVG Version: 6.00 Build 0)  -->
<!DOCTYPE svg PUBLIC "-//W3C//DTD SVG 1.1//EN" "http://www.w3.org/Graphics/SVG/1.1/DTD/svg11.dtd">
<svg version="1.1" id="Your_Icon" xmlns="http://www.w3.org/2000/svg" xmlns:xlink="http://www.w3.org/1999/xlink" x="0px" y="0px"
	 width="100px" height="100px" viewBox="0 0 100 100" enable-background="new 0 0 100 100" xml:space="preserve">
<path d="M81.229,62.602H58.716l11.82-24.425l1.952-4.036c0.234-0.63,0.445-1.271,0.628-1.923c0.574-2.057,0.903-4.214,0.903-6.453
	c0-13.264-10.756-24.018-24.021-24.018c-13.266,0-24.021,10.754-24.021,24.018c0,2.239,0.33,4.396,0.903,6.453
	c0.182,0.652,0.394,1.293,0.629,1.923l1.951,4.035L41.28,62.602H18.769L1.747,98.254h96.506L81.229,62.602z M49.999,17.17
	c4.746,0,8.596,3.849,8.596,8.593c0,4.748-3.85,8.595-8.596,8.595s-8.594-3.848-8.594-8.595
	C41.405,21.019,45.253,17.17,49.999,17.17z M36.365,71.414c4.039,0.551,6.411,3.369,9.317,6.869
	c4.617,5.561,10.365,12.48,25.699,12.48c9.377,0,15.119-1.703,17.106-5.057l4.365,9.141H36.365V71.414z M82.755,73.699
	c-5.973,0.014-12.629-0.041-15.896-3.301c-1.123-1.123-1.75-2.582-1.945-4.393h14.172L82.755,73.699z M49.999,80.617l7.071-14.611
	h6.146c0.218,2.273,1.011,4.17,2.441,5.6c3.602,3.594,10.215,3.797,16.303,3.797c0.396,0,0.789,0,1.18,0l0.43-0.002l3.919,8.207
	c-0.055,0.299-0.135,0.598-0.271,0.889c-0.959,2.084-4.484,4.566-15.834,4.566c-14.534,0-19.771-6.303-24.389-11.867
	c-2.959-3.559-5.789-6.906-10.628-7.479v-3.709h6.563L49.999,80.617z M20.915,66.006h13.748v3.598
	c-7.431,0.059-10.787,2.59-13.484,4.635c-1.776,1.344-3.237,2.439-5.494,2.725L20.915,66.006z M14.843,78.723
	c3.328-0.096,5.297-1.564,7.363-3.127c2.623-1.988,5.608-4.229,12.457-4.283v23.535H7.145L14.843,78.723z"/>
</svg>
